  0
SECTION
  2
HEADER
  9
$ACADVER
  1
AC1015
  9
$ACADMAINTVER
 70
     6
  9
$DWGCODEPAGE
  3
ANSI_1252
  9
$INSBASE
 10
0.0
 20
0.0
 30
0.0
  9
$EXTMIN
 10
0.0
 20
0.0
 30
0.0
  9
$EXTMAX
 10
104.429932
 20
160.467499
 30
2.0
  9
$LIMMIN
 10
0.0
 20
0.0
  9
$LIMMAX
 10
420.0
 20
297.0
  9
$ORTHOMODE
 70
     0
  9
$REGENMODE
 70
     1
  9
$FILLMODE
 70
     1
  9
$QTEXTMODE
 70
     0
  9
$MIRRTEXT
 70
     1
  9
$LTSCALE
 40
1.0
  9
$ATTMODE
 70
     1
  9
$TEXTSIZE
 40
2.5
  9
$TRACEWID
 40
1.0
  9
$TEXTSTYLE
  7
Standard
  9
$CLAYER
  8
0
  9
$CELTYPE
  6
ByLayer
  9
$CECOLOR
 62
   256
  9
$CELTSCALE
 40
1.0
  9
$DISPSILH
 70
     0
  9
$DIMSCALE
 40
1.0
  9
$DIMASZ
 40
2.5
  9
$DIMEXO
 40
0.625
  9
$DIMDLI
 40
3.75
  9
$DIMRND
 40
0.0
  9
$DIMDLE
 40
0.0
  9
$DIMEXE
 40
1.25
  9
$DIMTP
 40
0.0
  9
$DIMTM
 40
0.0
  9
$DIMTXT
 40
2.5
  9
$DIMCEN
 40
2.5
  9
$DIMTSZ
 40
0.0
  9
$DIMTOL
 70
     0
  9
$DIMLIM
 70
     0
  9
$DIMTIH
 70
     0
  9
$DIMTOH
 70
     0
  9
$DIMSE1
 70
     0
  9
$DIMSE2
 70
     0
  9
$DIMTAD
 70
     1
  9
$DIMZIN
 70
     8
  9
$DIMBLK
  1

  9
$DIMASO
 70
     1
  9
$DIMSHO
 70
     1
  9
$DIMPOST
  1

  9
$DIMAPOST
  1

  9
$DIMALT
 70
     0
  9
$DIMALTD
 70
     3
  9
$DIMALTF
 40
0.03937
  9
$DIMLFAC
 40
1.0
  9
$DIMTOFL
 70
     1
  9
$DIMTVP
 40
0.0
  9
$DIMTIX
 70
     0
  9
$DIMSOXD
 70
     0
  9
$DIMSAH
 70
     0
  9
$DIMBLK1
  1

  9
$DIMBLK2
  1

  9
$DIMSTYLE
  2

  9
$DIMCLRD
 70
     0
  9
$DIMCLRE
 70
     0
  9
$DIMCLRT
 70
     0
  9
$DIMTFAC
 40
1.0
  9
$DIMGAP
 40
0.625
  9
$DIMJUST
 70
     0
  9
$DIMSD1
 70
     0
  9
$DIMSD2
 70
     0
  9
$DIMTOLJ
 70
     0
  9
$DIMTZIN
 70
     8
  9
$DIMALTZ
 70
     0
  9
$DIMALTTZ
 70
     0
  9
$DIMUPT
 70
     0
  9
$DIMDEC
 70
     2
  9
$DIMTDEC
 70
     2
  9
$DIMALTU
 70
     2
  9
$DIMALTTD
 70
     3
  9
$DIMTXSTY
  7
Standard
  9
$DIMAUNIT
 70
     0
  9
$DIMADEC
 70
     0
  9
$DIMALTRND
 40
0.0
  9
$DIMAZIN
 70
     0
  9
$DIMDSEP
 70
    44
  9
$DIMATFIT
 70
     0
  9
$DIMFRAC
 70
     0
  9
$DIMLDRBLK
  1

  9
$DIMLUNIT
 70
     2
  9
$DIMLWD
 70
    -2
  9
$DIMLWE
 70
    -2
  9
$DIMTMOVE
 70
     0
  9
$LUNITS
 70
     2
  9
$LUPREC
 70
     4
  9
$SKETCHINC
 40
1.0
  9
$FILLETRAD
 40
2.5
  9
$AUNITS
 70
     0
  9
$AUPREC
 70
     0
  9
$MENU
  1
.
  9
$ELEVATION
 40
0.0
  9
$PELEVATION
 40
0.0
  9
$THICKNESS
 40
0.0
  9
$LIMCHECK
 70
     0
  9
$CHAMFERA
 40
2.5
  9
$CHAMFERB
 40
2.5
  9
$CHAMFERC
 40
0.0
  9
$CHAMFERD
 40
0.0
  9
$SKPOLY
 70
     0
  9
$TDCREATE
 40
0.000000000
  9
$TDUCREATE
 40
0.000000000
  9
$TDUPDATE
 40
0.000000000
  9
$TDUUPDATE
 40
0.000000000
  9
$TDINDWG
 40
0.0000000000
  9
$TDUSRTIMER
 40
0.0000000000
  9
$USRTIMER
 70
     1
  9
$ANGBASE
 50
0.0
  9
$ANGDIR
 70
     0
  9
$PDMODE
 70
     0
  9
$PDSIZE
 40
0.0
  9
$PLINEWID
 40
0.0
  9
$SPLFRAME
 70
     0
  9
$SPLINETYPE
 70
     6
  9
$SPLINESEGS
 70
     8
  9
$HANDSEED
  5
D2
  9
$SURFTAB1
 70
     6
  9
$SURFTAB2
 70
     6
  9
$SURFTYPE
 70
     6
  9
$SURFU
 70
     6
  9
$SURFV
 70
     6
  9
$UCSBASE
  2

  9
$UCSNAME
  2

  9
$UCSORG
 10
0.0
 20
0.0
 30
0.0
  9
$UCSXDIR
 10
1.0
 20
0.0
 30
0.0
  9
$UCSYDIR
 10
0.0
 20
1.0
 30
0.0
  9
$UCSORTHOREF
  2

  9
$UCSORTHOVIEW
 70
     1
  9
$UCSORGTOP
 10
0.0
 20
0.0
 30
0.0
  9
$UCSORGBOTTOM
 10
0.0
 20
0.0
 30
0.0
  9
$UCSORGLEFT
 10
0.0
 20
0.0
 30
0.0
  9
$UCSORGRIGHT
 10
0.0
 20
0.0
 30
0.0
  9
$UCSORGFRONT
 10
0.0
 20
0.0
 30
0.0
  9
$UCSORGBACK
 10
0.0
 20
0.0
 30
0.0
  9
$PUCSBASE
  2

  9
$PUCSNAME
  2

  9
$PUCSORG
 10
0.0
 20
0.0
 30
0.0
  9
$PUCSXDIR
 10
1.0
 20
0.0
 30
0.0
  9
$PUCSYDIR
 10
0.0
 20
1.0
 30
0.0
  9
$PUCSORTHOREF
  2

  9
$PUCSORTHOVIEW
 70
     0
  9
$PUCSORGTOP
 10
0.0
 20
0.0
 30
0.0
  9
$PUCSORGBOTTOM
 10
0.0
 20
0.0
 30
0.0
  9
$PUCSORGLEFT
 10
0.0
 20
0.0
 30
0.0
  9
$PUCSORGRIGHT
 10
0.0
 20
0.0
 30
0.0
  9
$PUCSORGFRONT
 10
0.0
 20
0.0
 30
0.0
  9
$PUCSORGBACK
 10
0.0
 20
0.0
 30
0.0
  9
$USERI1
 70
     0
  9
$USERI2
 70
     0
  9
$USERI3
 70
     0
  9
$USERI4
 70
     0
  9
$USERI5
 70
     0
  9
$USERR1
 40
0.0
  9
$USERR2
 40
0.0
  9
$USERR3
 40
0.0
  9
$USERR4
 40
0.0
  9
$USERR5
 40
0.0
  9
$WORLDVIEW
 70
     1
  9
$SHADEDGE
 70
     3
  9
$SHADEDIF
 70
    70
  9
$TILEMODE
 70
     1
  9
$MAXACTVP
 70
    48
  9
$PINSBASE
 10
0.0
 20
0.0
 30
0.0
  9
$PLIMCHECK
 70
     0
  9
$PEXTMIN
 10
0.0
 20
0.0
 30
0.0
  9
$PEXTMAX
 10
104.429932
 20
160.467499
 30
2.0
  9
$PLIMMIN
 10
0.0
 20
0.0
  9
$PLIMMAX
 10
420.0
 20
297.0
  9
$UNITMODE
 70
     0
  9
$VISRETAIN
 70
     0
  9
$PLINEGEN
 70
     0
  9
$PSLTSCALE
 70
     1
  9
$TREEDEPTH
 70
  3020
  9
$CMLSTYLE
  2
Standard
  9
$CMLJUST
 70
     0
  9
$CMLSCALE
 40
20.0
  9
$PROXYGRAPHICS
 70
     1
  9
$MEASUREMENT
 70
     1
  9
$CELWEIGHT
370
    -1
  9
$ENDCAPS
280
     0
  9
$JOINSTYLE
280
     0
  9
$LWDISPLAY
290
     0
  9
$INSUNITS
 70
     0
  9
$HYPERLINKBASE
  1

  9
$STYLESHEET
  1

  9
$XEDIT
290
     1
  9
$CEPSNTYPE
380
     0
  9
$PSTYLEMODE
290
     0
  9
$FINGERPRINTGUID
  2

  9
$VERSIONGUID
  2

  9
$EXTNAMES
290
     0
  9
$PSVPSCALE
 40
0.0
  0
ENDSEC
  0
SECTION
  2
CLASSES
  0
CLASS
  1
LWPOLYLINE
  2
AcDbPolyline
  3
AutoCAD 2000
 90
        0
280
     0
281
     1
  0
CLASS
  1
IMAGE
  2
AcDbRasterImage
  3
ISM
 90
      127
280
     0
281
     1
  0
CLASS
  1
OLE2FRAME
  2
AcDbOle2Frame
  3
AutoCAD 2000
 90
        0
280
     0
281
     1
  0
CLASS
  1
HATCH
  2
AcDbHatch
  3
AutoCAD 2000
 90
        0
280
     0
281
     1
  0
CLASS
  1
DICTIONARYVAR
  2
AcDbDictionaryVar
  3
AutoCAD 2000
 90
        0
280
     0
281
     0
  0
CLASS
  1
RASTERVARIABLES
  2
AcDbRasterVariables
  3
ISM
 90
        0
280
     0
281
     0
  0
CLASS
  1
IMAGEDEF
  2
AcDbRasterImageDef
  3
ISM
 90
        0
280
     0
281
     0
  0
CLASS
  1
IMAGEDEF_REACTOR
  2
AcDbRasterImageDefReactor
  3
ISM
 90
        1
280
     0
281
     0
  0
CLASS
  1
IDBUFFER
  2
AcDbIdBuffer
  3
AutoCAD 2000
 90
        0
280
     0
281
     0
  0
CLASS
  1
SPATIAL_FILTER
  2
AcDbSpatialFilter
  3
AutoCAD 2000
 90
        0
280
     0
281
     0
  0
CLASS
  1
XRECORD
  2
AcDbXrecord
  3
AutoCAD 2000
 90
        0
280
     0
281
     0
  0
CLASS
  1
SORTENTSTABLE
  2
AcDbSortentsTable
  3
AutoCAD 2000
 90
        0
280
     0
281
     0
  0
CLASS
  1
LAYER_INDEX
  2
AcDbLayerIndex
  3
AutoCAD 2000
 90
        0
280
     0
281
     0
  0
CLASS
  1
SPATIAL_INDEX
  2
AcDbSpatialIndex
  3
AutoCAD 2000
 90
        0
280
     0
281
     0
  0
CLASS
  1
OBJECT_PTR
  2
CAseDLPNTableRecord
  3
"ASE-LPNTableRecord"
 90
        1
280
     0
281
     0
  0
CLASS
  1
LAYOUT
  2
AcDbLayout
  3
AutoCAD 2000
 90
        0
280
     0
281
     0
  0
CLASS
  1
PLOTSETTINGS
  2
AcDbPlotSettings
  3
AutoCAD 2000
 90
        0
280
     0
281
     0
  0
CLASS
  1
ACDBDICTIONARYWDFLT
  2
AcDbDictionaryWithDefault
  3
AutoCAD 2000
 90
        0
280
     0
281
     0
  0
CLASS
  1
ACDBPLACEHOLDER
  2
AcDbPlaceHolder
  3
AutoCAD 2000
 90
        0
280
     0
281
     0
  0
CLASS
  1
VBA_PROJECT
  2
AcDbVbaProject
  3
acadvba
 90
        0
280
     0
281
     0
  0
CLASS
  1
WIPEOUT
  2
AcDbWipeout
  3
WipeOut|AutoCAD Express Tool|expresstools@autodesk.com
 90
      127
280
     0
281
     1
  0
CLASS
  1
WIPEOUTVARIABLES
  2
AcDbWipeoutVariables
  3
WipeOut|AutoCAD Express Tool|expresstools@autodesk.com
 90
        0
280
     0
281
     0
  0
CLASS
  1
RTEXT
  2
RText
  3
RText|AutoCAD Express Tool|expresstools@autodesk.com
 90
        0
280
     0
281
     1
  0
CLASS
  1
ARCALIGNEDTEXT
  2
AcDbArcAlignedText
  3
ATEXT|AutoCAD Express Tool|expresstools@autodesk.com
 90
        0
280
     0
281
     1
  0
ENDSEC
  0
SECTION
  2
TABLES
  0
TABLE
  2
VPORT
  5
7
100
AcDbSymbolTable
 70
     1
  0
VPORT
  5
15
100
AcDbSymbolTableRecord
100
AcDbViewportTableRecord
  2
*ACTIVE
 70
     0
 10
0.0
 20
0.0
 11
1.0
 21
1.0
 12
6.591288
 22
4.579184
 13
0.0
 23
0.0
 14
1.0
 24
1.0
 15
0.0
 25
0.0
 16
0.0
 26
0.0
 36
1.0
 17
0.0
 27
0.0
 37
0.0
 40
9.158369
 41
0.688564
 42
50.0
 43
0.0
 44
0.0
 50
0.0
 51
0.0
 71
     0
 72
   100
 73
     1
 74
     1
 75
     0
 76
     0
 77
     0
 78
     0
281
     0
 65
     0
110
0.0
120
0.0
130
0.0
111
1.0
121
0.0
131
0.0
112
0.0
122
1.0
132
0.0
345
0
346
0
 79
     0
146
0.0
  0
ENDTAB
  0
TABLE
  2
LTYPE
  5
4
100
AcDbSymbolTable
 70
     3
  0
LTYPE
  5
11
100
AcDbSymbolTableRecord
100
AcDbLinetypeTableRecord
  2
ByBlock
 70
    64
  3

 72
    65
 73
     0
 40
0.0
  0
LTYPE
  5
12
100
AcDbSymbolTableRecord
100
AcDbLinetypeTableRecord
  2
ByLayer
 70
    64
  3

 72
    65
 73
     0
 40
0.0
  0
LTYPE
  5
13
100
AcDbSymbolTableRecord
100
AcDbLinetypeTableRecord
  2
Continuous
 70
    64
  3
Solid line
 72
    65
 73
     0
 40
0.0
  0
ENDTAB
  0
TABLE
  2
LAYER
  5
2
100
AcDbSymbolTable
 70
     1
  0
LAYER
  5
14
100
AcDbSymbolTableRecord
100
AcDbLayerTableRecord
  2
0
 70
     0
 62
     7
  6
Continuous
290
     1
370
    -3
390
1D
  0
ENDTAB
  0
TABLE
  2
STYLE
  5
3
100
AcDbSymbolTable
 70
     1
  0
STYLE
  5
17
100
AcDbSymbolTableRecord
100
AcDbTextStyleTableRecord
  2
Standard
 70
     0
 40
0.0
 41
1.0
 50
0.0
 71
     0
 42
0.0
  3
txt
  4

  0
ENDTAB
  0
TABLE
  2
VIEW
  5
5
100
AcDbSymbolTable
 70
     0
  0
ENDTAB
  0
TABLE
  2
UCS
  5
6
100
AcDbSymbolTable
 70
     0
  0
ENDTAB
  0
TABLE
  2
APPID
  5
8
100
AcDbSymbolTable
 70
     1
  0
APPID
  5
16
100
AcDbSymbolTableRecord
100
AcDbRegAppTableRecord
  2
ACAD
 70
     0
  0
ENDTAB
  0
TABLE
  2
DIMSTYLE
  5
9
100
AcDbSymbolTable
 70
     1
100
AcDbDimStyleTable
 71
     0
  0
DIMSTYLE
105
18
100
AcDbSymbolTableRecord
100
AcDbDimStyleTableRecord
  2
Standard
 70
     0
  3

  4

 40
1.0
 41
0.18
 42
0.0625
 43
0.38
 44
0.18
 45
0.0
 46
0.0
 47
0.0
 48
0.0
 71
     0
 72
     0
 73
     1
 74
     1
 75
     0
 76
     0
 77
     0
 78
     0
 79
     0
140
0.18
141
0.09
142
0.0
143
25.4
144
1.0
145
0.0
146
1.0
147
0.09
148
0.0
170
     0
171
     2
172
     0
173
     0
174
     0
175
     0
176
     0
177
     0
178
     0
179
     0
271
     4
272
     4
273
     2
274
     2
275
     0
276
     0
277
     2
278
    46
279
     0
280
     0
281
     0
282
     0
283
     1
284
     0
285
     0
286
     0
288
     0
289
     3
340
17
341
0
342
0
343
0
344
0
371
    -2
372
    -2
  0
ENDTAB
  0
TABLE
  2
BLOCK_RECORD
  5
1
100
AcDbSymbolTable
 70
     0
  0
BLOCK_RECORD
  5
A
100
AcDbSymbolTableRecord
100
AcDbBlockTableRecord
  2
*MODEL_SPACE
340
20
  0
BLOCK_RECORD
  5
B
100
AcDbSymbolTableRecord
100
AcDbBlockTableRecord
  2
*PAPER_SPACE
340
21
  0
ENDTAB
  0
ENDSEC
  0
SECTION
  2
BLOCKS
  0
BLOCK
  5
D
100
AcDbEntity
  8
0
390
0
100
AcDbBlockBegin
  2
*MODEL_SPACE
 70
     0
 10
0.0
 20
0.0
 30
0.0
  3
*MODEL_SPACE
  1

  0
ENDBLK
  5
E
100
AcDbEntity
  8
0
390
0
100
AcDbBlockEnd
  0
BLOCK
  5
F
100
AcDbEntity
 67
     1
  8
0
390
0
100
AcDbBlockBegin
  2
*PAPER_SPACE
 70
     0
 10
0.0
 20
0.0
 30
0.0
  3
*PAPER_SPACE
  1

  0
ENDBLK
  5
10
100
AcDbEntity
 67
     1
  8
0
390
0
100
AcDbBlockEnd
  0
ENDSEC
  0
SECTION
  2
ENTITIES
  0
VIEWPORT
  5
D1
100
AcDbEntity
 67
     1
  8
0
370
     0
390
0
 62
     0
 48
0.0
100
AcDbViewport
 10
0.0
 20
0.0
 30
0.0
 40
1000.0
 41
1000.0
 68
     1
 69
     1
 12
0.0
 22
0.0
 13
0.0
 23
0.0
 14
1.0
 24
1.0
 15
1.0
 25
1.0
 16
0.0
 26
0.0
 36
1.0
 17
0.0
 27
0.0
 37
0.0
 42
50.0
 43
0.0
 44
0.0
 45
1000.0
 50
0.0
 51
0.0
 72
   100
 90
        0
340
0
  1

281
     0
 71
     0
 74
     1
110
0.0
120
0.0
130
0.0
111
1.0
121
0.0
131
0.0
112
0.0
122
1.0
132
0.0
345
0
346
0
 79
     0
146
0.0
  0
SOLID
  5
24
100
AcDbEntity
  8
0
370
     5
390
0
 62
     7
100
AcDbTrace
 10
103.23613
 20
158.371994
 30
0.0
 11
104.429932
 21
158.371994
 31
0.0
 12
103.23613
 22
159.388
 32
0.0
 13
104.429932
 23
159.388
 33
0.0
  0
SOLID
  5
25
100
AcDbEntity
  8
0
370
     5
390
0
 62
     7
100
AcDbTrace
 10
103.23613
 20
157.10199
 30
0.0
 11
104.429932
 21
157.10199
 31
0.0
 12
103.23613
 22
158.117996
 32
0.0
 13
104.429932
 23
158.117996
 33
0.0
  0
SOLID
  5
26
100
AcDbEntity
  8
0
370
     5
390
0
 62
     7
100
AcDbTrace
 10
103.23613
 20
155.832001
 30
0.0
 11
104.429932
 21
155.832001
 31
0.0
 12
103.23613
 22
156.847992
 32
0.0
 13
104.429932
 23
156.847992
 33
0.0
  0
SOLID
  5
27
100
AcDbEntity
  8
0
370
     5
390
0
 62
     7
100
AcDbTrace
 10
103.23613
 20
154.561996
 30
0.0
 11
104.429932
 21
154.561996
 31
0.0
 12
103.23613
 22
155.578003
 32
0.0
 13
104.429932
 23
155.578003
 33
0.0
  0
SOLID
  5
28
100
AcDbEntity
  8
0
370
     5
390
0
 62
     7
100
AcDbTrace
 10
103.23613
 20
153.291992
 30
0.0
 11
104.429932
 21
153.291992
 31
0.0
 12
103.23613
 22
154.307999
 32
0.0
 13
104.429932
 23
154.307999
 33
0.0
  0
SOLID
  5
29
100
AcDbEntity
  8
0
370
     5
390
0
 62
     7
100
AcDbTrace
 10
103.23613
 20
152.022003
 30
0.0
 11
104.429932
 21
152.022003
 31
0.0
 12
103.23613
 22
153.037994
 32
0.0
 13
104.429932
 23
153.037994
 33
0.0
  0
SOLID
  5
2A
100
AcDbEntity
  8
0
370
     5
390
0
 62
     7
100
AcDbTrace
 10
103.23613
 20
150.751984
 30
0.0
 11
104.429932
 21
150.751984
 31
0.0
 12
103.23613
 22
151.768005
 32
0.0
 13
104.429932
 23
151.768005
 33
0.0
  0
SOLID
  5
2B
100
AcDbEntity
  8
0
370
     5
390
0
 62
     7
100
AcDbTrace
 10
103.23613
 20
149.481995
 30
0.0
 11
104.429932
 21
149.481995
 31
0.0
 12
103.23613
 22
150.497986
 32
0.0
 13
104.429932
 23
150.497986
 33
0.0
  0
SOLID
  5
2C
100
AcDbEntity
  8
0
370
     5
390
0
 62
     7
100
AcDbTrace
 10
103.23613
 20
148.212006
 30
0.0
 11
104.429932
 21
148.212006
 31
0.0
 12
103.23613
 22
149.227997
 32
0.0
 13
104.429932
 23
149.227997
 33
0.0
  0
SOLID
  5
2D
100
AcDbEntity
  8
0
370
     5
390
0
 62
     7
100
AcDbTrace
 10
103.23613
 20
146.941986
 30
0.0
 11
104.429932
 21
146.941986
 31
0.0
 12
103.23613
 22
147.957993
 32
0.0
 13
104.429932
 23
147.957993
 33
0.0
  0
SOLID
  5
2E
100
AcDbEntity
  8
0
370
     5
390
0
 62
     7
100
AcDbTrace
 10
103.23613
 20
145.671997
 30
0.0
 11
104.429932
 21
145.671997
 31
0.0
 12
103.23613
 22
146.687988
 32
0.0
 13
104.429932
 23
146.687988
 33
0.0
  0
SOLID
  5
2F
100
AcDbEntity
  8
0
370
     5
390
0
 62
     7
100
AcDbTrace
 10
103.23613
 20
144.401993
 30
0.0
 11
104.429932
 21
144.401993
 31
0.0
 12
103.23613
 22
145.417999
 32
0.0
 13
104.429932
 23
145.417999
 33
0.0
  0
SOLID
  5
30
100
AcDbEntity
  8
0
370
     5
390
0
 62
     7
100
AcDbTrace
 10
103.23613
 20
143.131989
 30
0.0
 11
104.429932
 21
143.131989
 31
0.0
 12
103.23613
 22
144.147995
 32
0.0
 13
104.429932
 23
144.147995
 33
0.0
  0
SOLID
  5
31
100
AcDbEntity
  8
0
370
     5
390
0
 62
     7
100
AcDbTrace
 10
103.23613
 20
141.862
 30
0.0
 11
104.429932
 21
141.862
 31
0.0
 12
103.23613
 22
142.877991
 32
0.0
 13
104.429932
 23
142.877991
 33
0.0
  0
SOLID
  5
32
100
AcDbEntity
  8
0
370
     5
390
0
 62
     7
100
AcDbTrace
 10
103.23613
 20
140.591995
 30
0.0
 11
104.429932
 21
140.591995
 31
0.0
 12
103.23613
 22
141.608002
 32
0.0
 13
104.429932
 23
141.608002
 33
0.0
  0
SOLID
  5
33
100
AcDbEntity
  8
0
370
     5
390
0
 62
     7
100
AcDbTrace
 10
103.23613
 20
139.321991
 30
0.0
 11
104.429932
 21
139.321991
 31
0.0
 12
103.23613
 22
140.337997
 32
0.0
 13
104.429932
 23
140.337997
 33
0.0
  0
SOLID
  5
34
100
AcDbEntity
  8
0
370
     5
390
0
 62
     7
100
AcDbTrace
 10
87.91993
 20
140.337997
 30
0.0
 11
86.726128
 21
140.337997
 31
0.0
 12
87.91993
 22
139.321991
 32
0.0
 13
86.726128
 23
139.321991
 33
0.0
  0
SOLID
  5
35
100
AcDbEntity
  8
0
370
     5
390
0
 62
     7
100
AcDbTrace
 10
87.91993
 20
141.608002
 30
0.0
 11
86.726128
 21
141.608002
 31
0.0
 12
87.91993
 22
140.591995
 32
0.0
 13
86.726128
 23
140.591995
 33
0.0
  0
SOLID
  5
36
100
AcDbEntity
  8
0
370
     5
390
0
 62
     7
100
AcDbTrace
 10
87.91993
 20
142.877991
 30
0.0
 11
86.726128
 21
142.877991
 31
0.0
 12
87.91993
 22
141.862
 32
0.0
 13
86.726128
 23
141.862
 33
0.0
  0
SOLID
  5
37
100
AcDbEntity
  8
0
370
     5
390
0
 62
     7
100
AcDbTrace
 10
87.91993
 20
144.147995
 30
0.0
 11
86.726128
 21
144.147995
 31
0.0
 12
87.91993
 22
143.131989
 32
0.0
 13
86.726128
 23
143.131989
 33
0.0
  0
SOLID
  5
38
100
AcDbEntity
  8
0
370
     5
390
0
 62
     7
100
AcDbTrace
 10
87.91993
 20
145.417999
 30
0.0
 11
86.726128
 21
145.417999
 31
0.0
 12
87.91993
 22
144.401993
 32
0.0
 13
86.726128
 23
144.401993
 33
0.0
  0
SOLID
  5
39
100
AcDbEntity
  8
0
370
     5
390
0
 62
     7
100
AcDbTrace
 10
87.91993
 20
146.687988
 30
0.0
 11
86.726128
 21
146.687988
 31
0.0
 12
87.91993
 22
145.671997
 32
0.0
 13
86.726128
 23
145.671997
 33
0.0
  0
SOLID
  5
3A
100
AcDbEntity
  8
0
370
     5
390
0
 62
     7
100
AcDbTrace
 10
87.91993
 20
147.957993
 30
0.0
 11
86.726128
 21
147.957993
 31
0.0
 12
87.91993
 22
146.941986
 32
0.0
 13
86.726128
 23
146.941986
 33
0.0
  0
SOLID
  5
3B
100
AcDbEntity
  8
0
370
     5
390
0
 62
     7
100
AcDbTrace
 10
87.91993
 20
149.227997
 30
0.0
 11
86.726128
 21
149.227997
 31
0.0
 12
87.91993
 22
148.212006
 32
0.0
 13
86.726128
 23
148.212006
 33
0.0
  0
SOLID
  5
3C
100
AcDbEntity
  8
0
370
     5
390
0
 62
     7
100
AcDbTrace
 10
87.91993
 20
150.497986
 30
0.0
 11
86.726128
 21
150.497986
 31
0.0
 12
87.91993
 22
149.481995
 32
0.0
 13
86.726128
 23
149.481995
 33
0.0
  0
SOLID
  5
3D
100
AcDbEntity
  8
0
370
     5
390
0
 62
     7
100
AcDbTrace
 10
87.91993
 20
151.768005
 30
0.0
 11
86.726128
 21
151.768005
 31
0.0
 12
87.91993
 22
150.751984
 32
0.0
 13
86.726128
 23
150.751984
 33
0.0
  0
SOLID
  5
3E
100
AcDbEntity
  8
0
370
     5
390
0
 62
     7
100
AcDbTrace
 10
87.91993
 20
153.037994
 30
0.0
 11
86.726128
 21
153.037994
 31
0.0
 12
87.91993
 22
152.022003
 32
0.0
 13
86.726128
 23
152.022003
 33
0.0
  0
SOLID
  5
3F
100
AcDbEntity
  8
0
370
     5
390
0
 62
     7
100
AcDbTrace
 10
87.91993
 20
154.307999
 30
0.0
 11
86.726128
 21
154.307999
 31
0.0
 12
87.91993
 22
153.291992
 32
0.0
 13
86.726128
 23
153.291992
 33
0.0
  0
SOLID
  5
40
100
AcDbEntity
  8
0
370
     5
390
0
 62
     7
100
AcDbTrace
 10
87.91993
 20
155.578003
 30
0.0
 11
86.726128
 21
155.578003
 31
0.0
 12
87.91993
 22
154.561996
 32
0.0
 13
86.726128
 23
154.561996
 33
0.0
  0
SOLID
  5
41
100
AcDbEntity
  8
0
370
     5
390
0
 62
     7
100
AcDbTrace
 10
87.91993
 20
156.847992
 30
0.0
 11
86.726128
 21
156.847992
 31
0.0
 12
87.91993
 22
155.832001
 32
0.0
 13
86.726128
 23
155.832001
 33
0.0
  0
SOLID
  5
42
100
AcDbEntity
  8
0
370
     5
390
0
 62
     7
100
AcDbTrace
 10
87.91993
 20
158.117996
 30
0.0
 11
86.726128
 21
158.117996
 31
0.0
 12
87.91993
 22
157.10199
 32
0.0
 13
86.726128
 23
157.10199
 33
0.0
  0
SOLID
  5
43
100
AcDbEntity
  8
0
370
     5
390
0
 62
     7
100
AcDbTrace
 10
87.91993
 20
159.388
 30
0.0
 11
86.726128
 21
159.388
 31
0.0
 12
87.91993
 22
158.371994
 32
0.0
 13
86.726128
 23
158.371994
 33
0.0
  0
POINT
  5
44
100
AcDbEntity
  8
0
370
     5
390
0
 62
    53
100
AcDbPoint
 10
95.578026
 20
149.354996
 30
0.0
210
0.0
220
0.0
230
1.0
  0
LINE
  5
45
100
AcDbEntity
  8
0
370
    35
390
0
 62
     9
 48
0.41275
100
AcDbLine
 10
87.323029
 20
160.467499
 30
0.0
 11
103.833023
 21
160.467499
 31
0.0
210
0.0
220
0.0
230
1.0
  0
LINE
  5
46
100
AcDbEntity
  8
0
370
    35
390
0
 62
     9
 48
0.015875
100
AcDbLine
 10
103.833023
 20
160.467499
 30
0.0
 11
103.833023
 21
159.832489
 31
0.0
210
0.0
220
0.0
230
1.0
  0
LINE
  5
47
100
AcDbEntity
  8
0
370
    35
390
0
 62
     9
 48
0.015875
100
AcDbLine
 10
87.323029
 20
160.467499
 30
0.0
 11
87.323029
 21
159.832489
 31
0.0
210
0.0
220
0.0
230
1.0
  0
LINE
  5
48
100
AcDbEntity
  8
0
370
    35
390
0
 62
     9
 48
0.015875
100
AcDbLine
 10
87.323029
 20
138.877502
 30
0.0
 11
87.323029
 21
138.242493
 31
0.0
210
0.0
220
0.0
230
1.0
  0
LINE
  5
49
100
AcDbEntity
  8
0
370
    35
390
0
 62
     9
 48
0.41275
100
AcDbLine
 10
87.323029
 20
138.242493
 30
0.0
 11
103.833023
 21
138.242493
 31
0.0
210
0.0
220
0.0
230
1.0
  0
LINE
  5
4A
100
AcDbEntity
  8
0
370
    35
390
0
 62
     9
 48
0.015875
100
AcDbLine
 10
103.833023
 20
138.242493
 30
0.0
 11
103.833023
 21
138.877502
 31
0.0
210
0.0
220
0.0
230
1.0
  0
CIRCLE
  5
4B
100
AcDbEntity
  8
0
370
    35
390
0
 62
     9
100
AcDbCircle
 10
88.593025
 20
159.832489
 30
0.0
 40
0.3175
210
0.0
220
0.0
230
1.0
  0
LINE
  5
4C
100
AcDbEntity
  8
0
370
    35
390
0
 62
     7
 48
0.029845
100
AcDbLine
 10
87.91993
 20
159.388
 30
0.0
 11
86.726128
 21
159.388
 31
0.0
210
0.0
220
0.0
230
1.0
  0
LINE
  5
4D
100
AcDbEntity
  8
0
370
    35
390
0
 62
     7
 48
0.0254
100
AcDbLine
 10
86.726128
 20
159.388
 30
0.0
 11
86.726128
 21
158.371994
 31
0.0
210
0.0
220
0.0
230
1.0
  0
LINE
  5
4E
100
AcDbEntity
  8
0
370
    35
390
0
 62
     7
 48
0.029845
100
AcDbLine
 10
86.726128
 20
158.371994
 30
0.0
 11
87.91993
 21
158.371994
 31
0.0
210
0.0
220
0.0
230
1.0
  0
LINE
  5
4F
100
AcDbEntity
  8
0
370
    35
390
0
 62
     7
 48
0.0254
100
AcDbLine
 10
87.91993
 20
158.371994
 30
0.0
 11
87.91993
 21
159.388
 31
0.0
210
0.0
220
0.0
230
1.0
  0
LINE
  5
50
100
AcDbEntity
  8
0
370
    35
390
0
 62
     7
 48
0.029845
100
AcDbLine
 10
87.91993
 20
158.117996
 30
0.0
 11
86.726128
 21
158.117996
 31
0.0
210
0.0
220
0.0
230
1.0
  0
LINE
  5
51
100
AcDbEntity
  8
0
370
    35
390
0
 62
     7
 48
0.0254
100
AcDbLine
 10
86.726128
 20
158.117996
 30
0.0
 11
86.726128
 21
157.10199
 31
0.0
210
0.0
220
0.0
230
1.0
  0
LINE
  5
52
100
AcDbEntity
  8
0
370
    35
390
0
 62
     7
 48
0.029845
100
AcDbLine
 10
86.726128
 20
157.10199
 30
0.0
 11
87.91993
 21
157.10199
 31
0.0
210
0.0
220
0.0
230
1.0
  0
LINE
  5
53
100
AcDbEntity
  8
0
370
    35
390
0
 62
     7
 48
0.0254
100
AcDbLine
 10
87.91993
 20
157.10199
 30
0.0
 11
87.91993
 21
158.117996
 31
0.0
210
0.0
220
0.0
230
1.0
  0
LINE
  5
54
100
AcDbEntity
  8
0
370
    35
390
0
 62
     7
 48
0.029845
100
AcDbLine
 10
87.91993
 20
156.847992
 30
0.0
 11
86.726128
 21
156.847992
 31
0.0
210
0.0
220
0.0
230
1.0
  0
LINE
  5
55
100
AcDbEntity
  8
0
370
    35
390
0
 62
     7
 48
0.0254
100
AcDbLine
 10
86.726128
 20
156.847992
 30
0.0
 11
86.726128
 21
155.832001
 31
0.0
210
0.0
220
0.0
230
1.0
  0
LINE
  5
56
100
AcDbEntity
  8
0
370
    35
390
0
 62
     7
 48
0.029845
100
AcDbLine
 10
86.726128
 20
155.832001
 30
0.0
 11
87.91993
 21
155.832001
 31
0.0
210
0.0
220
0.0
230
1.0
  0
LINE
  5
57
100
AcDbEntity
  8
0
370
    35
390
0
 62
     7
 48
0.0254
100
AcDbLine
 10
87.91993
 20
155.832001
 30
0.0
 11
87.91993
 21
156.847992
 31
0.0
210
0.0
220
0.0
230
1.0
  0
LINE
  5
58
100
AcDbEntity
  8
0
370
    35
390
0
 62
     7
 48
0.029845
100
AcDbLine
 10
87.91993
 20
155.578003
 30
0.0
 11
86.726128
 21
155.578003
 31
0.0
210
0.0
220
0.0
230
1.0
  0
LINE
  5
59
100
AcDbEntity
  8
0
370
    35
390
0
 62
     7
 48
0.0254
100
AcDbLine
 10
86.726128
 20
155.578003
 30
0.0
 11
86.726128
 21
154.561996
 31
0.0
210
0.0
220
0.0
230
1.0
  0
LINE
  5
5A
100
AcDbEntity
  8
0
370
    35
390
0
 62
     7
 48
0.029845
100
AcDbLine
 10
86.726128
 20
154.561996
 30
0.0
 11
87.91993
 21
154.561996
 31
0.0
210
0.0
220
0.0
230
1.0
  0
LINE
  5
5B
100
AcDbEntity
  8
0
370
    35
390
0
 62
     7
 48
0.0254
100
AcDbLine
 10
87.91993
 20
154.561996
 30
0.0
 11
87.91993
 21
155.578003
 31
0.0
210
0.0
220
0.0
230
1.0
  0
LINE
  5
5C
100
AcDbEntity
  8
0
370
    35
390
0
 62
     7
 48
0.029845
100
AcDbLine
 10
87.91993
 20
154.307999
 30
0.0
 11
86.726128
 21
154.307999
 31
0.0
210
0.0
220
0.0
230
1.0
  0
LINE
  5
5D
100
AcDbEntity
  8
0
370
    35
390
0
 62
     7
 48
0.0254
100
AcDbLine
 10
86.726128
 20
154.307999
 30
0.0
 11
86.726128
 21
153.291992
 31
0.0
210
0.0
220
0.0
230
1.0
  0
LINE
  5
5E
100
AcDbEntity
  8
0
370
    35
390
0
 62
     7
 48
0.029845
100
AcDbLine
 10
86.726128
 20
153.291992
 30
0.0
 11
87.91993
 21
153.291992
 31
0.0
210
0.0
220
0.0
230
1.0
  0
LINE
  5
5F
100
AcDbEntity
  8
0
370
    35
390
0
 62
     7
 48
0.0254
100
AcDbLine
 10
87.91993
 20
153.291992
 30
0.0
 11
87.91993
 21
154.307999
 31
0.0
210
0.0
220
0.0
230
1.0
  0
LINE
  5
60
100
AcDbEntity
  8
0
370
    35
390
0
 62
     7
 48
0.029845
100
AcDbLine
 10
87.91993
 20
153.037994
 30
0.0
 11
86.726128
 21
153.037994
 31
0.0
210
0.0
220
0.0
230
1.0
  0
LINE
  5
61
100
AcDbEntity
  8
0
370
    35
390
0
 62
     7
 48
0.0254
100
AcDbLine
 10
86.726128
 20
153.037994
 30
0.0
 11
86.726128
 21
152.022003
 31
0.0
210
0.0
220
0.0
230
1.0
  0
LINE
  5
62
100
AcDbEntity
  8
0
370
    35
390
0
 62
     7
 48
0.029845
100
AcDbLine
 10
86.726128
 20
152.022003
 30
0.0
 11
87.91993
 21
152.022003
 31
0.0
210
0.0
220
0.0
230
1.0
  0
LINE
  5
63
100
AcDbEntity
  8
0
370
    35
390
0
 62
     7
 48
0.0254
100
AcDbLine
 10
87.91993
 20
152.022003
 30
0.0
 11
87.91993
 21
153.037994
 31
0.0
210
0.0
220
0.0
230
1.0
  0
LINE
  5
64
100
AcDbEntity
  8
0
370
    35
390
0
 62
     7
 48
0.029845
100
AcDbLine
 10
87.91993
 20
151.768005
 30
0.0
 11
86.726128
 21
151.768005
 31
0.0
210
0.0
220
0.0
230
1.0
  0
LINE
  5
65
100
AcDbEntity
  8
0
370
    35
390
0
 62
     7
 48
0.025401
100
AcDbLine
 10
86.726128
 20
151.768005
 30
0.0
 11
86.726128
 21
150.751984
 31
0.0
210
0.0
220
0.0
230
1.0
  0
LINE
  5
66
100
AcDbEntity
  8
0
370
    35
390
0
 62
     7
 48
0.029845
100
AcDbLine
 10
86.726128
 20
150.751984
 30
0.0
 11
87.91993
 21
150.751984
 31
0.0
210
0.0
220
0.0
230
1.0
  0
LINE
  5
67
100
AcDbEntity
  8
0
370
    35
390
0
 62
     7
 48
0.025401
100
AcDbLine
 10
87.91993
 20
150.751984
 30
0.0
 11
87.91993
 21
151.768005
 31
0.0
210
0.0
220
0.0
230
1.0
  0
LINE
  5
68
100
AcDbEntity
  8
0
370
    35
390
0
 62
     7
 48
0.029845
100
AcDbLine
 10
87.91993
 20
150.497986
 30
0.0
 11
86.726128
 21
150.497986
 31
0.0
210
0.0
220
0.0
230
1.0
  0
LINE
  5
69
100
AcDbEntity
  8
0
370
    35
390
0
 62
     7
 48
0.0254
100
AcDbLine
 10
86.726128
 20
150.497986
 30
0.0
 11
86.726128
 21
149.481995
 31
0.0
210
0.0
220
0.0
230
1.0
  0
LINE
  5
6A
100
AcDbEntity
  8
0
370
    35
390
0
 62
     7
 48
0.029845
100
AcDbLine
 10
86.726128
 20
149.481995
 30
0.0
 11
87.91993
 21
149.481995
 31
0.0
210
0.0
220
0.0
230
1.0
  0
LINE
  5
6B
100
AcDbEntity
  8
0
370
    35
390
0
 62
     7
 48
0.0254
100
AcDbLine
 10
87.91993
 20
149.481995
 30
0.0
 11
87.91993
 21
150.497986
 31
0.0
210
0.0
220
0.0
230
1.0
  0
LINE
  5
6C
100
AcDbEntity
  8
0
370
    35
390
0
 62
     7
 48
0.029845
100
AcDbLine
 10
87.91993
 20
149.227997
 30
0.0
 11
86.726128
 21
149.227997
 31
0.0
210
0.0
220
0.0
230
1.0
  0
LINE
  5
6D
100
AcDbEntity
  8
0
370
    35
390
0
 62
     7
 48
0.0254
100
AcDbLine
 10
86.726128
 20
149.227997
 30
0.0
 11
86.726128
 21
148.212006
 31
0.0
210
0.0
220
0.0
230
1.0
  0
LINE
  5
6E
100
AcDbEntity
  8
0
370
    35
390
0
 62
     7
 48
0.029845
100
AcDbLine
 10
86.726128
 20
148.212006
 30
0.0
 11
87.91993
 21
148.212006
 31
0.0
210
0.0
220
0.0
230
1.0
  0
LINE
  5
6F
100
AcDbEntity
  8
0
370
    35
390
0
 62
     7
 48
0.0254
100
AcDbLine
 10
87.91993
 20
148.212006
 30
0.0
 11
87.91993
 21
149.227997
 31
0.0
210
0.0
220
0.0
230
1.0
  0
LINE
  5
70
100
AcDbEntity
  8
0
370
    35
390
0
 62
     7
 48
0.029845
100
AcDbLine
 10
87.91993
 20
147.957993
 30
0.0
 11
86.726128
 21
147.957993
 31
0.0
210
0.0
220
0.0
230
1.0
  0
LINE
  5
71
100
AcDbEntity
  8
0
370
    35
390
0
 62
     7
 48
0.0254
100
AcDbLine
 10
86.726128
 20
147.957993
 30
0.0
 11
86.726128
 21
146.941986
 31
0.0
210
0.0
220
0.0
230
1.0
  0
LINE
  5
72
100
AcDbEntity
  8
0
370
    35
390
0
 62
     7
 48
0.029845
100
AcDbLine
 10
86.726128
 20
146.941986
 30
0.0
 11
87.91993
 21
146.941986
 31
0.0
210
0.0
220
0.0
230
1.0
  0
LINE
  5
73
100
AcDbEntity
  8
0
370
    35
390
0
 62
     7
 48
0.0254
100
AcDbLine
 10
87.91993
 20
146.941986
 30
0.0
 11
87.91993
 21
147.957993
 31
0.0
210
0.0
220
0.0
230
1.0
  0
LINE
  5
74
100
AcDbEntity
  8
0
370
    35
390
0
 62
     7
 48
0.029845
100
AcDbLine
 10
87.91993
 20
146.687988
 30
0.0
 11
86.726128
 21
146.687988
 31
0.0
210
0.0
220
0.0
230
1.0
  0
LINE
  5
75
100
AcDbEntity
  8
0
370
    35
390
0
 62
     7
 48
0.0254
100
AcDbLine
 10
86.726128
 20
146.687988
 30
0.0
 11
86.726128
 21
145.671997
 31
0.0
210
0.0
220
0.0
230
1.0
  0
LINE
  5
76
100
AcDbEntity
  8
0
370
    35
390
0
 62
     7
 48
0.029845
100
AcDbLine
 10
86.726128
 20
145.671997
 30
0.0
 11
87.91993
 21
145.671997
 31
0.0
210
0.0
220
0.0
230
1.0
  0
LINE
  5
77
100
AcDbEntity
  8
0
370
    35
390
0
 62
     7
 48
0.0254
100
AcDbLine
 10
87.91993
 20
145.671997
 30
0.0
 11
87.91993
 21
146.687988
 31
0.0
210
0.0
220
0.0
230
1.0
  0
LINE
  5
78
100
AcDbEntity
  8
0
370
    35
390
0
 62
     7
 48
0.029845
100
AcDbLine
 10
87.91993
 20
145.417999
 30
0.0
 11
86.726128
 21
145.417999
 31
0.0
210
0.0
220
0.0
230
1.0
  0
LINE
  5
79
100
AcDbEntity
  8
0
370
    35
390
0
 62
     7
 48
0.0254
100
AcDbLine
 10
86.726128
 20
145.417999
 30
0.0
 11
86.726128
 21
144.401993
 31
0.0
210
0.0
220
0.0
230
1.0
  0
LINE
  5
7A
100
AcDbEntity
  8
0
370
    35
390
0
 62
     7
 48
0.029845
100
AcDbLine
 10
86.726128
 20
144.401993
 30
0.0
 11
87.91993
 21
144.401993
 31
0.0
210
0.0
220
0.0
230
1.0
  0
LINE
  5
7B
100
AcDbEntity
  8
0
370
    35
390
0
 62
     7
 48
0.0254
100
AcDbLine
 10
87.91993
 20
144.401993
 30
0.0
 11
87.91993
 21
145.417999
 31
0.0
210
0.0
220
0.0
230
1.0
  0
LINE
  5
7C
100
AcDbEntity
  8
0
370
    35
390
0
 62
     7
 48
0.029845
100
AcDbLine
 10
87.91993
 20
144.147995
 30
0.0
 11
86.726128
 21
144.147995
 31
0.0
210
0.0
220
0.0
230
1.0
  0
LINE
  5
7D
100
AcDbEntity
  8
0
370
    35
390
0
 62
     7
 48
0.0254
100
AcDbLine
 10
86.726128
 20
144.147995
 30
0.0
 11
86.726128
 21
143.131989
 31
0.0
210
0.0
220
0.0
230
1.0
  0
LINE
  5
7E
100
AcDbEntity
  8
0
370
    35
390
0
 62
     7
 48
0.029845
100
AcDbLine
 10
86.726128
 20
143.131989
 30
0.0
 11
87.91993
 21
143.131989
 31
0.0
210
0.0
220
0.0
230
1.0
  0
LINE
  5
7F
100
AcDbEntity
  8
0
370
    35
390
0
 62
     7
 48
0.0254
100
AcDbLine
 10
87.91993
 20
143.131989
 30
0.0
 11
87.91993
 21
144.147995
 31
0.0
210
0.0
220
0.0
230
1.0
  0
LINE
  5
80
100
AcDbEntity
  8
0
370
    35
390
0
 62
     7
 48
0.029845
100
AcDbLine
 10
87.91993
 20
142.877991
 30
0.0
 11
86.726128
 21
142.877991
 31
0.0
210
0.0
220
0.0
230
1.0
  0
LINE
  5
81
100
AcDbEntity
  8
0
370
    35
390
0
 62
     7
 48
0.0254
100
AcDbLine
 10
86.726128
 20
142.877991
 30
0.0
 11
86.726128
 21
141.862
 31
0.0
210
0.0
220
0.0
230
1.0
  0
LINE
  5
82
100
AcDbEntity
  8
0
370
    35
390
0
 62
     7
 48
0.029845
100
AcDbLine
 10
86.726128
 20
141.862
 30
0.0
 11
87.91993
 21
141.862
 31
0.0
210
0.0
220
0.0
230
1.0
  0
LINE
  5
83
100
AcDbEntity
  8
0
370
    35
390
0
 62
     7
 48
0.0254
100
AcDbLine
 10
87.91993
 20
141.862
 30
0.0
 11
87.91993
 21
142.877991
 31
0.0
210
0.0
220
0.0
230
1.0
  0
LINE
  5
84
100
AcDbEntity
  8
0
370
    35
390
0
 62
     7
 48
0.029845
100
AcDbLine
 10
87.91993
 20
141.608002
 30
0.0
 11
86.726128
 21
141.608002
 31
0.0
210
0.0
220
0.0
230
1.0
  0
LINE
  5
85
100
AcDbEntity
  8
0
370
    35
390
0
 62
     7
 48
0.0254
100
AcDbLine
 10
86.726128
 20
141.608002
 30
0.0
 11
86.726128
 21
140.591995
 31
0.0
210
0.0
220
0.0
230
1.0
  0
LINE
  5
86
100
AcDbEntity
  8
0
370
    35
390
0
 62
     7
 48
0.029845
100
AcDbLine
 10
86.726128
 20
140.591995
 30
0.0
 11
87.91993
 21
140.591995
 31
0.0
210
0.0
220
0.0
230
1.0
  0
LINE
  5
87
100
AcDbEntity
  8
0
370
    35
390
0
 62
     7
 48
0.0254
100
AcDbLine
 10
87.91993
 20
140.591995
 30
0.0
 11
87.91993
 21
141.608002
 31
0.0
210
0.0
220
0.0
230
1.0
  0
LINE
  5
88
100
AcDbEntity
  8
0
370
    35
390
0
 62
     7
 48
0.029845
100
AcDbLine
 10
87.91993
 20
140.337997
 30
0.0
 11
86.726128
 21
140.337997
 31
0.0
210
0.0
220
0.0
230
1.0
  0
LINE
  5
89
100
AcDbEntity
  8
0
370
    35
390
0
 62
     7
 48
0.0254
100
AcDbLine
 10
86.726128
 20
140.337997
 30
0.0
 11
86.726128
 21
139.321991
 31
0.0
210
0.0
220
0.0
230
1.0
  0
LINE
  5
8A
100
AcDbEntity
  8
0
370
    35
390
0
 62
     7
 48
0.029845
100
AcDbLine
 10
86.726128
 20
139.321991
 30
0.0
 11
87.91993
 21
139.321991
 31
0.0
210
0.0
220
0.0
230
1.0
  0
LINE
  5
8B
100
AcDbEntity
  8
0
370
    35
390
0
 62
     7
 48
0.0254
100
AcDbLine
 10
87.91993
 20
139.321991
 30
0.0
 11
87.91993
 21
140.337997
 31
0.0
210
0.0
220
0.0
230
1.0
  0
LINE
  5
8C
100
AcDbEntity
  8
0
370
    35
390
0
 62
     7
 48
0.029845
100
AcDbLine
 10
103.23613
 20
139.321991
 30
0.0
 11
104.429932
 21
139.321991
 31
0.0
210
0.0
220
0.0
230
1.0
  0
LINE
  5
8D
100
AcDbEntity
  8
0
370
    35
390
0
 62
     7
 48
0.0254
100
AcDbLine
 10
104.429932
 20
139.321991
 30
0.0
 11
104.429932
 21
140.337997
 31
0.0
210
0.0
220
0.0
230
1.0
  0
LINE
  5
8E
100
AcDbEntity
  8
0
370
    35
390
0
 62
     7
 48
0.029845
100
AcDbLine
 10
104.429932
 20
140.337997
 30
0.0
 11
103.23613
 21
140.337997
 31
0.0
210
0.0
220
0.0
230
1.0
  0
LINE
  5
8F
100
AcDbEntity
  8
0
370
    35
390
0
 62
     7
 48
0.0254
100
AcDbLine
 10
103.23613
 20
140.337997
 30
0.0
 11
103.23613
 21
139.321991
 31
0.0
210
0.0
220
0.0
230
1.0
  0
LINE
  5
90
100
AcDbEntity
  8
0
370
    35
390
0
 62
     7
 48
0.029845
100
AcDbLine
 10
103.23613
 20
140.591995
 30
0.0
 11
104.429932
 21
140.591995
 31
0.0
210
0.0
220
0.0
230
1.0
  0
LINE
  5
91
100
AcDbEntity
  8
0
370
    35
390
0
 62
     7
 48
0.0254
100
AcDbLine
 10
104.429932
 20
140.591995
 30
0.0
 11
104.429932
 21
141.608002
 31
0.0
210
0.0
220
0.0
230
1.0
  0
LINE
  5
92
100
AcDbEntity
  8
0
370
    35
390
0
 62
     7
 48
0.029845
100
AcDbLine
 10
104.429932
 20
141.608002
 30
0.0
 11
103.23613
 21
141.608002
 31
0.0
210
0.0
220
0.0
230
1.0
  0
LINE
  5
93
100
AcDbEntity
  8
0
370
    35
390
0
 62
     7
 48
0.0254
100
AcDbLine
 10
103.23613
 20
141.608002
 30
0.0
 11
103.23613
 21
140.591995
 31
0.0
210
0.0
220
0.0
230
1.0
  0
LINE
  5
94
100
AcDbEntity
  8
0
370
    35
390
0
 62
     7
 48
0.029845
100
AcDbLine
 10
103.23613
 20
141.862
 30
0.0
 11
104.429932
 21
141.862
 31
0.0
210
0.0
220
0.0
230
1.0
  0
LINE
  5
95
100
AcDbEntity
  8
0
370
    35
390
0
 62
     7
 48
0.0254
100
AcDbLine
 10
104.429932
 20
141.862
 30
0.0
 11
104.429932
 21
142.877991
 31
0.0
210
0.0
220
0.0
230
1.0
  0
LINE
  5
96
100
AcDbEntity
  8
0
370
    35
390
0
 62
     7
 48
0.029845
100
AcDbLine
 10
104.429932
 20
142.877991
 30
0.0
 11
103.23613
 21
142.877991
 31
0.0
210
0.0
220
0.0
230
1.0
  0
LINE
  5
97
100
AcDbEntity
  8
0
370
    35
390
0
 62
     7
 48
0.0254
100
AcDbLine
 10
103.23613
 20
142.877991
 30
0.0
 11
103.23613
 21
141.862
 31
0.0
210
0.0
220
0.0
230
1.0
  0
LINE
  5
98
100
AcDbEntity
  8
0
370
    35
390
0
 62
     7
 48
0.029845
100
AcDbLine
 10
103.23613
 20
143.131989
 30
0.0
 11
104.429932
 21
143.131989
 31
0.0
210
0.0
220
0.0
230
1.0
  0
LINE
  5
99
100
AcDbEntity
  8
0
370
    35
390
0
 62
     7
 48
0.0254
100
AcDbLine
 10
104.429932
 20
143.131989
 30
0.0
 11
104.429932
 21
144.147995
 31
0.0
210
0.0
220
0.0
230
1.0
  0
LINE
  5
9A
100
AcDbEntity
  8
0
370
    35
390
0
 62
     7
 48
0.029845
100
AcDbLine
 10
104.429932
 20
144.147995
 30
0.0
 11
103.23613
 21
144.147995
 31
0.0
210
0.0
220
0.0
230
1.0
  0
LINE
  5
9B
100
AcDbEntity
  8
0
370
    35
390
0
 62
     7
 48
0.0254
100
AcDbLine
 10
103.23613
 20
144.147995
 30
0.0
 11
103.23613
 21
143.131989
 31
0.0
210
0.0
220
0.0
230
1.0
  0
LINE
  5
9C
100
AcDbEntity
  8
0
370
    35
390
0
 62
     7
 48
0.029845
100
AcDbLine
 10
103.23613
 20
144.401993
 30
0.0
 11
104.429932
 21
144.401993
 31
0.0
210
0.0
220
0.0
230
1.0
  0
LINE
  5
9D
100
AcDbEntity
  8
0
370
    35
390
0
 62
     7
 48
0.0254
100
AcDbLine
 10
104.429932
 20
144.401993
 30
0.0
 11
104.429932
 21
145.417999
 31
0.0
210
0.0
220
0.0
230
1.0
  0
LINE
  5
9E
100
AcDbEntity
  8
0
370
    35
390
0
 62
     7
 48
0.029845
100
AcDbLine
 10
104.429932
 20
145.417999
 30
0.0
 11
103.23613
 21
145.417999
 31
0.0
210
0.0
220
0.0
230
1.0
  0
LINE
  5
9F
100
AcDbEntity
  8
0
370
    35
390
0
 62
     7
 48
0.0254
100
AcDbLine
 10
103.23613
 20
145.417999
 30
0.0
 11
103.23613
 21
144.401993
 31
0.0
210
0.0
220
0.0
230
1.0
  0
LINE
  5
A0
100
AcDbEntity
  8
0
370
    35
390
0
 62
     7
 48
0.029845
100
AcDbLine
 10
103.23613
 20
145.671997
 30
0.0
 11
104.429932
 21
145.671997
 31
0.0
210
0.0
220
0.0
230
1.0
  0
LINE
  5
A1
100
AcDbEntity
  8
0
370
    35
390
0
 62
     7
 48
0.0254
100
AcDbLine
 10
104.429932
 20
145.671997
 30
0.0
 11
104.429932
 21
146.687988
 31
0.0
210
0.0
220
0.0
230
1.0
  0
LINE
  5
A2
100
AcDbEntity
  8
0
370
    35
390
0
 62
     7
 48
0.029845
100
AcDbLine
 10
104.429932
 20
146.687988
 30
0.0
 11
103.23613
 21
146.687988
 31
0.0
210
0.0
220
0.0
230
1.0
  0
LINE
  5
A3
100
AcDbEntity
  8
0
370
    35
390
0
 62
     7
 48
0.0254
100
AcDbLine
 10
103.23613
 20
146.687988
 30
0.0
 11
103.23613
 21
145.671997
 31
0.0
210
0.0
220
0.0
230
1.0
  0
LINE
  5
A4
100
AcDbEntity
  8
0
370
    35
390
0
 62
     7
 48
0.029845
100
AcDbLine
 10
103.23613
 20
146.941986
 30
0.0
 11
104.429932
 21
146.941986
 31
0.0
210
0.0
220
0.0
230
1.0
  0
LINE
  5
A5
100
AcDbEntity
  8
0
370
    35
390
0
 62
     7
 48
0.0254
100
AcDbLine
 10
104.429932
 20
146.941986
 30
0.0
 11
104.429932
 21
147.957993
 31
0.0
210
0.0
220
0.0
230
1.0
  0
LINE
  5
A6
100
AcDbEntity
  8
0
370
    35
390
0
 62
     7
 48
0.029845
100
AcDbLine
 10
104.429932
 20
147.957993
 30
0.0
 11
103.23613
 21
147.957993
 31
0.0
210
0.0
220
0.0
230
1.0
  0
LINE
  5
A7
100
AcDbEntity
  8
0
370
    35
390
0
 62
     7
 48
0.0254
100
AcDbLine
 10
103.23613
 20
147.957993
 30
0.0
 11
103.23613
 21
146.941986
 31
0.0
210
0.0
220
0.0
230
1.0
  0
LINE
  5
A8
100
AcDbEntity
  8
0
370
    35
390
0
 62
     7
 48
0.029845
100
AcDbLine
 10
103.23613
 20
148.212006
 30
0.0
 11
104.429932
 21
148.212006
 31
0.0
210
0.0
220
0.0
230
1.0
  0
LINE
  5
A9
100
AcDbEntity
  8
0
370
    35
390
0
 62
     7
 48
0.0254
100
AcDbLine
 10
104.429932
 20
148.212006
 30
0.0
 11
104.429932
 21
149.227997
 31
0.0
210
0.0
220
0.0
230
1.0
  0
LINE
  5
AA
100
AcDbEntity
  8
0
370
    35
390
0
 62
     7
 48
0.029845
100
AcDbLine
 10
104.429932
 20
149.227997
 30
0.0
 11
103.23613
 21
149.227997
 31
0.0
210
0.0
220
0.0
230
1.0
  0
LINE
  5
AB
100
AcDbEntity
  8
0
370
    35
390
0
 62
     7
 48
0.0254
100
AcDbLine
 10
103.23613
 20
149.227997
 30
0.0
 11
103.23613
 21
148.212006
 31
0.0
210
0.0
220
0.0
230
1.0
  0
LINE
  5
AC
100
AcDbEntity
  8
0
370
    35
390
0
 62
     7
 48
0.029845
100
AcDbLine
 10
103.23613
 20
149.481995
 30
0.0
 11
104.429932
 21
149.481995
 31
0.0
210
0.0
220
0.0
230
1.0
  0
LINE
  5
AD
100
AcDbEntity
  8
0
370
    35
390
0
 62
     7
 48
0.0254
100
AcDbLine
 10
104.429932
 20
149.481995
 30
0.0
 11
104.429932
 21
150.497986
 31
0.0
210
0.0
220
0.0
230
1.0
  0
LINE
  5
AE
100
AcDbEntity
  8
0
370
    35
390
0
 62
     7
 48
0.029845
100
AcDbLine
 10
104.429932
 20
150.497986
 30
0.0
 11
103.23613
 21
150.497986
 31
0.0
210
0.0
220
0.0
230
1.0
  0
LINE
  5
AF
100
AcDbEntity
  8
0
370
    35
390
0
 62
     7
 48
0.0254
100
AcDbLine
 10
103.23613
 20
150.497986
 30
0.0
 11
103.23613
 21
149.481995
 31
0.0
210
0.0
220
0.0
230
1.0
  0
LINE
  5
B0
100
AcDbEntity
  8
0
370
    35
390
0
 62
     7
 48
0.029845
100
AcDbLine
 10
103.23613
 20
150.751984
 30
0.0
 11
104.429932
 21
150.751984
 31
0.0
210
0.0
220
0.0
230
1.0
  0
LINE
  5
B1
100
AcDbEntity
  8
0
370
    35
390
0
 62
     7
 48
0.025401
100
AcDbLine
 10
104.429932
 20
150.751984
 30
0.0
 11
104.429932
 21
151.768005
 31
0.0
210
0.0
220
0.0
230
1.0
  0
LINE
  5
B2
100
AcDbEntity
  8
0
370
    35
390
0
 62
     7
 48
0.029845
100
AcDbLine
 10
104.429932
 20
151.768005
 30
0.0
 11
103.23613
 21
151.768005
 31
0.0
210
0.0
220
0.0
230
1.0
  0
LINE
  5
B3
100
AcDbEntity
  8
0
370
    35
390
0
 62
     7
 48
0.025401
100
AcDbLine
 10
103.23613
 20
151.768005
 30
0.0
 11
103.23613
 21
150.751984
 31
0.0
210
0.0
220
0.0
230
1.0
  0
LINE
  5
B4
100
AcDbEntity
  8
0
370
    35
390
0
 62
     7
 48
0.029845
100
AcDbLine
 10
103.23613
 20
152.022003
 30
0.0
 11
104.429932
 21
152.022003
 31
0.0
210
0.0
220
0.0
230
1.0
  0
LINE
  5
B5
100
AcDbEntity
  8
0
370
    35
390
0
 62
     7
 48
0.0254
100
AcDbLine
 10
104.429932
 20
152.022003
 30
0.0
 11
104.429932
 21
153.037994
 31
0.0
210
0.0
220
0.0
230
1.0
  0
LINE
  5
B6
100
AcDbEntity
  8
0
370
    35
390
0
 62
     7
 48
0.029845
100
AcDbLine
 10
104.429932
 20
153.037994
 30
0.0
 11
103.23613
 21
153.037994
 31
0.0
210
0.0
220
0.0
230
1.0
  0
LINE
  5
B7
100
AcDbEntity
  8
0
370
    35
390
0
 62
     7
 48
0.0254
100
AcDbLine
 10
103.23613
 20
153.037994
 30
0.0
 11
103.23613
 21
152.022003
 31
0.0
210
0.0
220
0.0
230
1.0
  0
LINE
  5
B8
100
AcDbEntity
  8
0
370
    35
390
0
 62
     7
 48
0.029845
100
AcDbLine
 10
103.23613
 20
153.291992
 30
0.0
 11
104.429932
 21
153.291992
 31
0.0
210
0.0
220
0.0
230
1.0
  0
LINE
  5
B9
100
AcDbEntity
  8
0
370
    35
390
0
 62
     7
 48
0.0254
100
AcDbLine
 10
104.429932
 20
153.291992
 30
0.0
 11
104.429932
 21
154.307999
 31
0.0
210
0.0
220
0.0
230
1.0
  0
LINE
  5
BA
100
AcDbEntity
  8
0
370
    35
390
0
 62
     7
 48
0.029845
100
AcDbLine
 10
104.429932
 20
154.307999
 30
0.0
 11
103.23613
 21
154.307999
 31
0.0
210
0.0
220
0.0
230
1.0
  0
LINE
  5
BB
100
AcDbEntity
  8
0
370
    35
390
0
 62
     7
 48
0.0254
100
AcDbLine
 10
103.23613
 20
154.307999
 30
0.0
 11
103.23613
 21
153.291992
 31
0.0
210
0.0
220
0.0
230
1.0
  0
LINE
  5
BC
100
AcDbEntity
  8
0
370
    35
390
0
 62
     7
 48
0.029845
100
AcDbLine
 10
103.23613
 20
154.561996
 30
0.0
 11
104.429932
 21
154.561996
 31
0.0
210
0.0
220
0.0
230
1.0
  0
LINE
  5
BD
100
AcDbEntity
  8
0
370
    35
390
0
 62
     7
 48
0.0254
100
AcDbLine
 10
104.429932
 20
154.561996
 30
0.0
 11
104.429932
 21
155.578003
 31
0.0
210
0.0
220
0.0
230
1.0
  0
LINE
  5
BE
100
AcDbEntity
  8
0
370
    35
390
0
 62
     7
 48
0.029845
100
AcDbLine
 10
104.429932
 20
155.578003
 30
0.0
 11
103.23613
 21
155.578003
 31
0.0
210
0.0
220
0.0
230
1.0
  0
LINE
  5
BF
100
AcDbEntity
  8
0
370
    35
390
0
 62
     7
 48
0.0254
100
AcDbLine
 10
103.23613
 20
155.578003
 30
0.0
 11
103.23613
 21
154.561996
 31
0.0
210
0.0
220
0.0
230
1.0
  0
LINE
  5
C0
100
AcDbEntity
  8
0
370
    35
390
0
 62
     7
 48
0.029845
100
AcDbLine
 10
103.23613
 20
155.832001
 30
0.0
 11
104.429932
 21
155.832001
 31
0.0
210
0.0
220
0.0
230
1.0
  0
LINE
  5
C1
100
AcDbEntity
  8
0
370
    35
390
0
 62
     7
 48
0.0254
100
AcDbLine
 10
104.429932
 20
155.832001
 30
0.0
 11
104.429932
 21
156.847992
 31
0.0
210
0.0
220
0.0
230
1.0
  0
LINE
  5
C2
100
AcDbEntity
  8
0
370
    35
390
0
 62
     7
 48
0.029845
100
AcDbLine
 10
104.429932
 20
156.847992
 30
0.0
 11
103.23613
 21
156.847992
 31
0.0
210
0.0
220
0.0
230
1.0
  0
LINE
  5
C3
100
AcDbEntity
  8
0
370
    35
390
0
 62
     7
 48
0.0254
100
AcDbLine
 10
103.23613
 20
156.847992
 30
0.0
 11
103.23613
 21
155.832001
 31
0.0
210
0.0
220
0.0
230
1.0
  0
LINE
  5
C4
100
AcDbEntity
  8
0
370
    35
390
0
 62
     7
 48
0.029845
100
AcDbLine
 10
103.23613
 20
157.10199
 30
0.0
 11
104.429932
 21
157.10199
 31
0.0
210
0.0
220
0.0
230
1.0
  0
LINE
  5
C5
100
AcDbEntity
  8
0
370
    35
390
0
 62
     7
 48
0.0254
100
AcDbLine
 10
104.429932
 20
157.10199
 30
0.0
 11
104.429932
 21
158.117996
 31
0.0
210
0.0
220
0.0
230
1.0
  0
LINE
  5
C6
100
AcDbEntity
  8
0
370
    35
390
0
 62
     7
 48
0.029845
100
AcDbLine
 10
104.429932
 20
158.117996
 30
0.0
 11
103.23613
 21
158.117996
 31
0.0
210
0.0
220
0.0
230
1.0
  0
LINE
  5
C7
100
AcDbEntity
  8
0
370
    35
390
0
 62
     7
 48
0.0254
100
AcDbLine
 10
103.23613
 20
158.117996
 30
0.0
 11
103.23613
 21
157.10199
 31
0.0
210
0.0
220
0.0
230
1.0
  0
LINE
  5
C8
100
AcDbEntity
  8
0
370
    35
390
0
 62
     7
 48
0.029845
100
AcDbLine
 10
103.23613
 20
158.371994
 30
0.0
 11
104.429932
 21
158.371994
 31
0.0
210
0.0
220
0.0
230
1.0
  0
LINE
  5
C9
100
AcDbEntity
  8
0
370
    35
390
0
 62
     7
 48
0.0254
100
AcDbLine
 10
104.429932
 20
158.371994
 30
0.0
 11
104.429932
 21
159.388
 31
0.0
210
0.0
220
0.0
230
1.0
  0
LINE
  5
CA
100
AcDbEntity
  8
0
370
    35
390
0
 62
     7
 48
0.029845
100
AcDbLine
 10
104.429932
 20
159.388
 30
0.0
 11
103.23613
 21
159.388
 31
0.0
210
0.0
220
0.0
230
1.0
  0
LINE
  5
CB
100
AcDbEntity
  8
0
370
    35
390
0
 62
     7
 48
0.0254
100
AcDbLine
 10
103.23613
 20
159.388
 30
0.0
 11
103.23613
 21
158.371994
 31
0.0
210
0.0
220
0.0
230
1.0
  0
LINE
  5
CC
100
AcDbEntity
  8
0
370
    35
390
0
 62
     7
 48
0.05375
100
AcDbLine
 10
98.103043
 20
143.040009
 30
0.0
 11
100.253036
 21
143.040009
 31
0.0
210
0.0
220
0.0
230
1.0
  0
LINE
  5
CD
100
AcDbEntity
  8
0
370
    35
390
0
 62
     7
 48
0.05375
100
AcDbLine
 10
100.253036
 20
143.040009
 30
0.0
 11
100.253036
 21
145.190002
 31
0.0
210
0.0
220
0.0
230
1.0
  0
LINE
  5
CE
100
AcDbEntity
  8
0
370
    35
390
0
 62
     7
 48
0.05375
100
AcDbLine
 10
100.253036
 20
145.190002
 30
0.0
 11
98.103043
 21
145.190002
 31
0.0
210
0.0
220
0.0
230
1.0
  0
LINE
  5
CF
100
AcDbEntity
  8
0
370
    35
390
0
 62
     7
 48
0.05375
100
AcDbLine
 10
98.103043
 20
145.190002
 30
0.0
 11
98.103043
 21
143.040009
 31
0.0
210
0.0
220
0.0
230
1.0
  0
SOLID
  5
D0
100
AcDbEntity
  8
0
370
     5
390
0
 62
     7
100
AcDbTrace
 10
98.103043
 20
143.040009
 30
0.0
 11
100.253036
 21
143.040009
 31
0.0
 12
98.103043
 22
145.190002
 32
0.0
 13
100.253036
 23
145.190002
 33
0.0
  0
ENDSEC
  0
SECTION
  2
OBJECTS
  0
DICTIONARY
  5
19
100
AcDbDictionary
280
     0
281
     1
  3
ACAD_GROUP
350
1A
  3
ACAD_MLINESTYLE
350
1B
  3
ACAD_LAYOUT
350
1E
  3
ACAD_PLOTSETTINGS
350
22
  3
ACAD_PLOTSTYLENAME
350
1F
  3
ACAD_WIPEOUT_VARS
350
23
  0
DICTIONARY
  5
1A
102
{ACAD_REACTORS
330
19
102
}
100
AcDbDictionary
280
     0
281
     1
  0
DICTIONARY
  5
1B
102
{ACAD_REACTORS
330
19
102
}
100
AcDbDictionary
280
     0
281
     1
  3
Standard
350
1C
  0
MLINESTYLE
  5
1C
102
{ACAD_REACTORS
330
1B
102
}
100
AcDbMlineStyle
  2
Standard
 70
     0
  3

 62
     0
 51
90.0
 52
90.0
 71
     2
 49
0.5
 62
   256
  6
ByLayer
 49
-0.5
 62
   256
  6
ByLayer
  0
ACDBDICTIONARYWDFLT
  5
1F
102
{ACAD_REACTORS
330
19
102
}
100
AcDbDictionary
281
     1
  3
Normal
350
1D
100
AcDbDictionaryWithDefault
340
1D
  0
ACDBPLACEHOLDER
  5
1D
102
{ACAD_REACTORS
330
1F
102
}
  0
LAYOUT
  5
20
102
{ACAD_REACTORS
330
1E
102
}
100
AcDbPlotSettings
  1

  2

  4

  6

 40
0.0
 41
0.0
 42
0.0
 43
0.0
 44
0.0
 45
0.0
 46
0.0
 47
0.0
 48
0.0
 49
0.0
140
0.0
141
0.0
142
1.0
143
1.0
 70
  1024
 72
     0
 73
     0
 74
     0
  7

 75
     0
147
1.0
148
0.0
149
0.0
100
AcDbLayout
  1
Model
 70
     0
 71
     0
 10
0.0
 20
0.0
 11
0.0
 21
0.0
 12
0.0
 22
0.0
 32
0.0
 14
0.0
 24
0.0
 34
0.0
 15
0.0
 25
0.0
 35
0.0
146
0.0
 13
0.0
 23
0.0
 33
0.0
 16
0.0
 26
0.0
 36
0.0
 17
0.0
 27
0.0
 37
0.0
 76
     0
330
A
331
0
345
0
346
0
  0
LAYOUT
  5
21
102
{ACAD_REACTORS
330
1E
102
}
100
AcDbPlotSettings
  1

  2

  4

  6

 40
0.0
 41
0.0
 42
0.0
 43
0.0
 44
0.0
 45
0.0
 46
0.0
 47
0.0
 48
0.0
 49
0.0
140
0.0
141
0.0
142
1.0
143
1.0
 70
     0
 72
     0
 73
     0
 74
     0
  7

 75
     0
147
1.0
148
0.0
149
0.0
100
AcDbLayout
  1
Layout1
 70
     0
 71
     0
 10
0.0
 20
0.0
 11
0.0
 21
0.0
 12
0.0
 22
0.0
 32
0.0
 14
0.0
 24
0.0
 34
0.0
 15
0.0
 25
0.0
 35
0.0
146
0.0
 13
0.0
 23
0.0
 33
0.0
 16
0.0
 26
0.0
 36
0.0
 17
0.0
 27
0.0
 37
0.0
 76
     0
330
B
331
0
345
0
346
0
  0
DICTIONARY
  5
1E
102
{ACAD_REACTORS
330
19
102
}
100
AcDbDictionary
280
     0
281
     1
  3
Layout1
350
21
  3
Model
350
20
  0
DICTIONARY
  5
22
102
{ACAD_REACTORS
330
19
102
}
100
AcDbDictionary
280
     0
281
     1
  0
WIPEOUTVARIABLES
  5
23
100
AcDbWipeoutVariables
 70
     1
  0
ENDSEC
  0
EOF
